# xmcd CD database file
#
# Track frame offsets:
#	150
#	15709
#	28261
#	45376
#	62387
#	75822
#	93259
#	109916
#	124053
#	139925
#	156406
#	178273
#	193024
#	209257
#
# Disc length: 2952 seconds
#
# Revision: 0
# Processed by: cddbd v1.5.2PL0 Copyright (c) Steve Scherf et al.
# Submitted via: CDex 1.51
#
DISCID=b80b860e
DTITLE=Jonah's Road - Counting Down The Days
DYEAR=2007
DGENRE=Country
TTITLE0=Someone Like You
TTITLE1=Counting Down The Days
TTITLE2=Don't Look Back
TTITLE3=Long Gone
TTITLE4=All Mine
TTITLE5=I'll Find You Here
TTITLE6=I'm Still Here
TTITLE7=Thank God
TTITLE8=Tequila and Wine
TTITLE9=Why Does She Love Me
TTITLE10=Staying Here Tonight
TTITLE11=Time Before
TTITLE12=Back To You
TTITLE13=Giddy Up
EXTD=YEAR: 2007
EXTT0=
EXTT1=
EXTT2=
EXTT3=
EXTT4=
EXTT5=
EXTT6=
EXTT7=
EXTT8=
EXTT9=
EXTT10=
EXTT11=
EXTT12=
EXTT13=
PLAYORDER=
